<?xml version="1.0" standalone="no"?>
<!DOCTYPE svg PUBLIC "-//W3C//DTD SVG 20010904//EN"
 "http://www.w3.org/TR/2001/REC-SVG-20010904/DTD/svg10.dtd">
<svg version="1.0" xmlns="http://www.w3.org/2000/svg"
 width="3334.000000pt" height="3334.000000pt" viewBox="0 0 3334.000000 3334.000000"
 preserveAspectRatio="xMidYMid meet">

<g transform="translate(0.000000,3334.000000) scale(0.100000,-0.100000)"
fill="#000000" stroke="none">
<path d="M11830 22345 l0 -2680 2430 -2430 2430 -2430 414 414 415 414 -33 39
c-35 40 -56 96 -56 146 0 34 45 13 -430 206 l-305 125 -5 -50 -5 -49 -1993
1992 -1992 1993 2 1404 3 1404 853 -891 853 -890 102 -6 c85 -5 2045 -47 2145
-46 l32 0 0 -126 c0 -97 3 -125 13 -121 6 2 131 48 277 102 146 54 266 99 267
100 2 1 6 22 9 47 l6 46 -373 413 -373 414 -51 2 c-95 5 -1440 33 -1551 33
l-110 0 -1415 1476 c-777 812 -1446 1511 -1486 1553 l-72 76 -1 -2680z"/>
<path d="M21269 24735 c-129 -135 -235 -249 -236 -253 -4 -12 383 -696 398
-704 8 -4 29 -13 47 -22 l32 -14 0 619 c0 340 -2 619 -4 619 -2 0 -109 -110
-237 -245z"/>
<path d="M20318 23743 l-598 -624 0 -123 0 -122 52 -24 c29 -13 72 -43 96 -67
24 -24 47 -43 52 -41 4 2 287 183 629 403 592 382 621 401 621 430 1 41 33
110 68 143 l29 27 -169 300 c-93 165 -172 305 -176 311 -4 6 -259 -252 -604
-613z"/>
<path d="M20599 22996 l-624 -401 -8 -70 c-14 -126 -73 -220 -172 -271 -49
-25 -55 -32 -50 -54 7 -35 285 -1935 285 -1947 0 -6 17 -13 38 -16 38 -5 109
-34 145 -59 17 -12 31 0 134 107 64 66 352 359 640 651 l523 531 0 946 0 946
-37 -16 c-60 -25 -153 -14 -207 24 l-44 31 -623 -402z"/>
<path d="M19507 22895 l-59 -66 44 20 c23 11 51 22 61 25 12 4 17 16 17 46 0
22 -1 40 -2 40 -2 0 -29 -29 -61 -65z"/>
<path d="M18923 22287 l-422 -442 -103 3 c-532 13 -1551 32 -1554 29 -2 -2
131 -154 297 -338 l300 -334 48 -6 c26 -4 57 -11 68 -17 18 -10 133 61 914
564 492 317 896 578 898 580 2 2 -11 32 -30 66 -32 58 -34 70 -34 153 0 71 5
100 22 138 12 26 21 47 20 47 -1 -1 -192 -200 -424 -443z"/>
<path d="M18590 21643 c-919 -593 -923 -596 -887 -629 7 -6 472 -205 1034
-442 l1022 -432 60 42 c34 23 61 45 61 49 0 9 -279 1903 -286 1945 -5 26 -13
33 -44 43 -20 6 -41 11 -46 10 -5 0 -416 -264 -914 -586z"/>
<path d="M20912 20644 l-592 -603 15 -57 c8 -32 15 -72 15 -89 l0 -30 492
-209 491 -208 89 89 88 88 -2 811 -3 811 -593 -603z"/>
<path d="M17639 20820 l-36 -37 288 -1287 c158 -708 289 -1289 291 -1291 2 -1
33 -4 70 -6 l67 -4 699 773 700 773 -20 57 c-16 44 -19 74 -16 133 l4 76 -955
403 c-526 222 -979 414 -1006 426 l-50 22 -36 -38z"/>
<path d="M16987 20707 l-297 -112 2 -830 3 -830 645 -402 c355 -221 648 -402
651 -402 3 -1 14 5 24 13 18 13 9 59 -270 1308 l-288 1295 -42 11 c-24 6 -56
23 -73 37 -16 14 -36 25 -43 24 -8 -1 -148 -51 -312 -112z"/>
<path d="M20266 19687 c-15 -19 -26 -37 -26 -41 0 -5 97 -199 216 -433 l217
-425 268 268 c148 148 269 271 269 275 0 5 -901 389 -913 389 -3 0 -17 -15
-31 -33z"/>
<path d="M19133 18867 l-689 -762 33 -43 c38 -50 63 -126 63 -191 l0 -46 412
-174 411 -173 599 599 600 600 -229 448 -230 447 -89 2 c-75 1 -97 6 -140 28
l-52 27 -689 -762z"/>
<path d="M16690 18250 c0 -447 2 -510 15 -510 29 0 1170 212 1176 218 4 4 10
17 13 28 7 22 -70 71 -1121 723 l-83 51 0 -510z"/>
<path d="M17290 17689 c-322 -59 -588 -108 -592 -109 -5 0 -8 -285 -8 -633 l0
-633 407 -166 c405 -165 407 -166 433 -149 42 30 99 44 154 37 l52 -6 202 743
c111 408 202 747 202 753 0 6 -17 16 -38 22 -90 27 -182 120 -212 215 -6 20
-12 37 -13 36 -1 0 -265 -50 -587 -110z"/>
<path d="M18447 17635 c-21 -24 -62 -56 -90 -70 l-52 -25 -207 -758 c-114
-416 -206 -760 -205 -765 1 -4 306 297 677 668 371 371 672 676 670 679 -8 7
-742 316 -749 315 -3 0 -23 -21 -44 -44z"/>
<path d="M19050 13981 c-67 -24 -143 -99 -159 -157 -37 -132 37 -276 160 -313
62 -19 162 -15 212 7 161 71 201 290 76 409 -70 66 -191 89 -289 54z"/>
<path d="M23500 13448 l0 -452 -47 46 c-133 130 -340 197 -573 185 -298 -16
-543 -149 -696 -378 -121 -183 -172 -422 -140 -666 51 -392 278 -652 651 -749
182 -47 420 -33 577 35 70 30 153 85 203 136 l45 44 0 -109 0 -110 200 0 200
0 0 1235 0 1235 -210 0 -210 0 0 -452z m-404 -589 c194 -35 356 -199 399 -404
70 -331 -115 -634 -417 -685 -132 -23 -276 5 -380 71 -108 70 -203 213 -229
347 -18 93 -7 262 21 337 96 253 332 384 606 334z"/>
<path d="M9567 13753 c-4 -3 -7 -528 -7 -1165 l0 -1158 90 0 89 0 0 503 c1
276 1 505 1 509 0 5 278 9 618 10 l617 3 2 78 1 77 -619 0 -619 0 -2 491 c-2
270 -1 493 1 495 2 2 314 4 693 4 l688 0 0 80 0 80 -773 0 c-426 0 -777 -3
-780 -7z"/>
<path d="M15800 12595 l0 -1165 210 0 209 0 0 746 c0 411 2 748 3 750 4 3 84
-128 452 -736 142 -234 269 -442 282 -462 l24 -38 98 0 98 0 374 631 375 631
3 -761 2 -761 210 0 210 0 0 1165 0 1165 -179 0 -178 0 -25 -37 c-13 -21 -217
-365 -452 -765 -236 -401 -431 -728 -435 -728 -4 0 -213 344 -464 765 l-458
765 -180 0 -179 0 0 -1165z"/>
<path d="M20760 13219 c-156 -25 -283 -81 -390 -170 l-70 -59 0 109 0 109
-197 -2 -198 -1 -2 -887 -3 -888 210 0 209 0 3 523 c4 509 4 524 26 588 48
144 145 244 280 291 95 33 281 33 363 0 101 -40 180 -125 212 -227 26 -84 26
-98 27 -645 l1 -530 210 0 209 0 0 568 c0 338 -4 593 -10 632 -59 374 -329
596 -725 598 -55 0 -125 -4 -155 -9z"/>
<path d="M18947 13203 c-4 -3 -7 -404 -7 -890 l0 -883 210 0 210 0 0 890 0
890 -203 0 c-112 0 -207 -3 -210 -7z"/>
<path d="M12137 13170 c-311 -56 -566 -268 -662 -550 -156 -456 32 -938 439
-1125 117 -54 229 -77 376 -77 160 -1 267 24 410 94 94 45 115 61 206 152 90
90 107 113 153 206 79 161 95 232 94 430 0 193 -16 269 -87 415 -103 210 -286
361 -521 430 -73 22 -115 28 -225 30 -74 2 -157 0 -183 -5z m339 -165 c153
-39 302 -144 387 -273 89 -135 121 -254 119 -447 0 -109 -5 -144 -27 -220 -91
-310 -340 -495 -666 -495 -271 0 -498 137 -613 370 -57 117 -77 209 -78 360 0
186 44 331 144 466 101 136 266 229 447 255 74 10 214 2 287 -16z"/>
<path d="M13446 13161 c-3 -5 138 -194 314 -421 189 -242 317 -416 313 -423
-3 -7 -153 -203 -333 -437 -180 -234 -330 -431 -334 -437 -5 -10 15 -13 88
-13 l94 0 297 385 297 385 295 -385 296 -385 100 0 99 0 -28 38 c-16 20 -171
220 -346 444 -175 225 -318 410 -318 413 0 3 144 190 320 417 176 227 320 416
320 421 0 4 -41 7 -90 6 l-91 -1 -276 -359 c-152 -198 -279 -359 -282 -358 -3
0 -130 161 -281 357 l-275 357 -87 3 c-47 1 -89 -1 -92 -7z"/>
<path d="M18117 10583 c-4 -3 -7 -386 -7 -850 l0 -843 85 0 85 0 0 343 c0 375
7 437 57 528 75 138 236 209 427 186 133 -15 229 -89 272 -212 16 -44 19 -96
22 -447 l3 -398 85 0 84 0 -3 408 c-3 342 -6 416 -20 465 -50 172 -157 279
-324 322 -76 20 -238 19 -317 -1 -87 -22 -172 -70 -233 -132 l-53 -52 0 345 0
345 -78 0 c-43 0 -82 -3 -85 -7z"/>
<path d="M13920 10415 l0 -75 280 0 280 0 0 -725 0 -725 85 0 85 0 0 725 0
725 283 2 282 3 0 70 0 70 -647 3 -648 2 0 -75z"/>
<path d="M15758 10084 c-129 -31 -262 -128 -340 -248 -62 -96 -90 -199 -91
-336 0 -81 5 -134 17 -180 73 -269 309 -440 605 -440 176 0 323 50 424 144 54
49 54 47 -5 116 l-37 43 -45 -41 c-85 -79 -182 -112 -327 -112 -191 0 -327 72
-416 220 -24 39 -53 132 -53 167 l0 23 506 0 507 0 -6 88 c-13 180 -63 298
-172 408 -75 75 -156 123 -255 149 -69 18 -236 18 -312 -1z m334 -161 c132
-62 220 -179 242 -320 l6 -43 -425 0 -425 0 0 25 c0 36 36 140 65 185 82 130
211 193 381 186 77 -3 103 -8 156 -33z"/>
<path d="M17155 10084 c-328 -79 -519 -419 -430 -765 53 -204 224 -371 436
-423 133 -33 334 -14 443 41 55 27 131 91 164 137 l32 44 -63 41 -62 41 -33
-39 c-77 -92 -191 -135 -346 -129 -88 3 -110 8 -168 35 -184 87 -281 282 -250
503 16 110 57 193 133 265 70 67 140 101 241 116 145 23 294 -24 381 -121 l44
-48 61 40 c72 47 72 50 -12 133 -56 57 -149 106 -241 130 -75 19 -249 18 -330
-1z"/>
</g>
</svg>
