<?xml version="1.0" standalone="no"?>
<!DOCTYPE svg PUBLIC "-//W3C//DTD SVG 20010904//EN"
 "http://www.w3.org/TR/2001/REC-SVG-20010904/DTD/svg10.dtd">
<svg version="1.0" xmlns="http://www.w3.org/2000/svg"
 width="290.000000pt" height="174.000000pt" viewBox="0 0 290.000000 174.000000"
 preserveAspectRatio="xMidYMid meet">

<g transform="translate(0.000000,174.000000) scale(0.100000,-0.100000)"
fill="#000000" stroke="none">
<path d="M1370 1523 c-47 -81 -99 -172 -117 -203 l-32 -55 39 -22 38 -23 68
120 c37 66 69 118 72 116 2 -3 -1 -53 -7 -112 -18 -175 -22 -169 62 -87 l72
72 33 -59 c18 -33 35 -60 38 -60 5 0 66 30 72 36 3 2 -111 205 -125 223 -2 3
-15 -6 -29 -20 l-27 -24 6 59 c5 55 3 65 -29 123 -20 35 -39 63 -43 63 -4 0
-45 -66 -91 -147z"/>
<path d="M1316 1544 c-197 -52 -363 -225 -406 -426 -22 -100 4 -354 31 -306 5
9 2 45 -6 84 -18 87 -18 121 0 209 39 185 186 351 354 402 52 15 91 38 80 46
-2 2 -26 -2 -53 -9z"/>
<path d="M1561 1539 c5 -10 19 -19 30 -19 32 0 149 -57 207 -102 68 -52 138
-150 170 -237 31 -85 40 -222 19 -301 -17 -61 -7 -107 12 -58 21 55 33 161 27
227 -24 234 -195 436 -418 494 -56 15 -57 14 -47 -4z"/>
<path d="M1176 1185 c-11 -19 -17 -36 -15 -38 2 -2 61 -37 131 -78 l128 -74 0
-167 0 -168 40 0 40 0 0 165 0 164 135 71 c74 40 135 74 135 76 0 14 -32 64
-41 64 -6 0 -68 -29 -139 -65 l-129 -66 -126 76 c-70 41 -130 75 -134 75 -3 0
-15 -16 -25 -35z"/>
<path d="M1002 885 l-130 -225 54 0 53 0 33 60 33 60 163 0 162 0 0 45 0 45
-136 0 c-75 0 -134 3 -132 8 2 4 16 31 32 60 l29 52 46 -26 c25 -14 53 -35 63
-45 11 -13 29 -19 57 -19 40 0 41 1 41 34 0 33 -4 37 -112 102 -62 37 -116 69
-119 71 -4 1 -65 -98 -137 -222z"/>
<path d="M1668 1026 l-118 -61 0 -77 0 -78 45 22 c40 20 45 26 45 56 0 61 23
30 75 -101 l50 -127 47 0 48 0 -19 48 c-10 26 -37 93 -60 150 -23 56 -41 105
-41 107 0 13 30 3 39 -12 9 -17 12 -17 50 2 l41 20 -33 54 c-18 30 -37 55 -42
56 -6 1 -63 -26 -127 -59z"/>
<path d="M1042 621 c25 -36 113 -102 176 -132 69 -33 173 -59 242 -59 130 0
286 63 385 154 75 69 49 79 -28 10 -206 -181 -524 -175 -726 14 -38 37 -71 45
-49 13z"/>
<path d="M680 350 c-24 -24 -24 -29 -4 -58 12 -17 24 -22 57 -20 l42 1 -37 4
c-43 5 -62 24 -53 53 5 16 15 20 46 20 21 0 39 5 39 10 0 19 -69 11 -90 -10z"/>
<path d="M892 318 c1 -50 2 -51 5 -10 4 41 5 42 42 42 21 0 40 -3 44 -6 14
-14 -7 -34 -37 -35 -27 0 -29 -1 -10 -9 12 -5 25 -13 29 -19 3 -6 14 -11 23
-11 12 0 13 3 5 11 -9 9 -9 16 0 30 20 31 -3 54 -57 57 l-46 3 2 -53z"/>
<path d="M1120 320 l0 -50 48 2 c43 1 44 2 10 5 -36 4 -38 6 -38 39 0 32 2 34
35 34 19 0 35 5 35 10 0 6 -20 10 -45 10 l-45 0 0 -50z"/>
<path d="M1378 353 c-18 -22 -48 -70 -48 -78 0 -17 21 0 40 32 17 29 23 34 30
22 7 -10 4 -16 -8 -21 -14 -5 -13 -7 5 -7 12 -1 26 -9 32 -18 5 -10 12 -15 16
-11 6 5 -41 98 -49 98 -2 0 -10 -8 -18 -17z"/>
<path d="M1560 360 c0 -5 9 -10 20 -10 17 0 20 -7 20 -40 0 -22 5 -40 10 -40
6 0 10 18 10 40 0 33 3 40 20 40 11 0 20 5 20 10 0 6 -22 10 -50 10 -27 0 -50
-4 -50 -10z"/>
<path d="M1770 320 c0 -27 5 -50 10 -50 6 0 10 23 10 50 0 28 -4 50 -10 50 -5
0 -10 -22 -10 -50z"/>
<path d="M1910 365 c0 -10 55 -95 62 -95 7 0 29 31 62 88 4 6 3 12 -3 12 -5 0
-19 -16 -31 -35 -12 -19 -25 -35 -29 -35 -3 0 -15 16 -25 35 -16 30 -36 46
-36 30z"/>
<path d="M2150 320 l0 -50 48 2 c43 1 44 2 10 5 -36 4 -38 6 -38 39 0 32 2 34
36 34 21 0 33 4 29 10 -3 6 -24 10 -46 10 l-39 0 0 -50z"/>
<path d="M1150 320 c0 -5 14 -10 31 -10 17 0 28 4 24 10 -3 6 -17 10 -31 10
-13 0 -24 -4 -24 -10z"/>
<path d="M2180 320 c0 -5 11 -10 25 -10 14 0 25 5 25 10 0 6 -11 10 -25 10
-14 0 -25 -4 -25 -10z"/>
<path d="M955 181 c-3 -5 -2 -12 3 -15 5 -3 9 1 9 9 0 17 -3 19 -12 6z"/>
<path d="M1631 174 c0 -11 3 -14 6 -6 3 7 2 16 -1 19 -3 4 -6 -2 -5 -13z"/>
<path d="M1835 180 c-3 -6 1 -7 9 -4 18 7 21 14 7 14 -6 0 -13 -4 -16 -10z"/>
<path d="M1931 176 c-9 -11 -9 -16 0 -22 7 -4 9 -3 5 4 -3 5 0 12 6 15 7 2 10
7 7 11 -3 4 -12 0 -18 -8z"/>
<path d="M1730 171 c0 -6 4 -13 10 -16 6 -3 7 1 4 9 -7 18 -14 21 -14 7z"/>
</g>
</svg>
